<svg preserveAspectRatio="none" width="100%" height="100%" overflow="visible" style="display: block;" viewBox="0 0 20 16" fill="none" xmlns="http://www.w3.org/2000/svg">
<path id="Subtract" fill-rule="evenodd" clip-rule="evenodd" d="M4 0C1.79086 0 0 1.79086 0 4V12C0 14.2091 1.79086 16 4 16H16C18.2091 16 20 14.2091 20 12V4C20 1.79086 18.2091 0 16 0H4ZM10 10C11.1046 10 12 9.10457 12 8C12 6.89543 11.1046 6 10 6C8.89543 6 8 6.89543 8 8C8 9.10457 8.89543 10 10 10ZM14.25 13C14.25 12.5858 14.5858 12.25 15 12.25H17C17.4142 12.25 17.75 12.5858 17.75 13C17.75 13.4142 17.4142 13.75 17 13.75H15C14.5858 13.75 14.25 13.4142 14.25 13ZM15 2.25C14.5858 2.25 14.25 2.58579 14.25 3C14.25 3.41421 14.5858 3.75 15 3.75H17C17.4142 3.75 17.75 3.41421 17.75 3C17.75 2.58579 17.4142 2.25 17 2.25H15ZM2.25 3C2.25 2.58579 2.58579 2.25 3 2.25H5C5.41421 2.25 5.75 2.58579 5.75 3C5.75 3.41421 5.41421 3.75 5 3.75H3C2.58579 3.75 2.25 3.41421 2.25 3ZM3 12.25C2.58579 12.25 2.25 12.5858 2.25 13C2.25 13.4142 2.58579 13.75 3 13.75H5C5.41421 13.75 5.75 13.4142 5.75 13C5.75 12.5858 5.41421 12.25 5 12.25H3Z" fill="var(--fill-0, white)"/>
</svg>
