<svg preserveAspectRatio="none" width="100%" height="100%" overflow="visible" style="display: block;" viewBox="0 0 20.2318 18" fill="none" xmlns="http://www.w3.org/2000/svg">
<g id="road-location">
<path id="combo shape" d="M10.9904 2C10.7483 2.61983 10.6164 3.29447 10.6164 4C10.6164 4.14994 10.6222 4.30332 10.6349 4.45898C10.5003 4.32978 10.3177 4.25011 10.1164 4.25C9.70215 4.25 9.36637 4.58579 9.36637 5V6C9.36637 6.41421 9.70215 6.75 10.1164 6.75C10.5304 6.74978 10.8664 6.41408 10.8664 6V5.76758C11.1251 6.75522 11.5641 7.75887 12.0871 8.6123C12.5197 9.31827 13.0575 10.0022 13.6877 10.5264C14.3071 11.0416 15.1376 11.5 16.1164 11.5C17.0043 11.4999 17.7695 11.1227 18.3664 10.668L20.1027 15.2979C20.5929 16.6053 19.626 18 18.2296 18H2.00211C0.605755 18 -0.361108 16.6053 0.129061 15.2979L4.62906 3.29785C4.92179 2.51724 5.66842 2 6.50211 2H10.9904ZM10.1164 13.25C9.70215 13.25 9.36637 13.5858 9.36637 14V15C9.36637 15.4142 9.70215 15.75 10.1164 15.75C10.5304 15.7498 10.8664 15.4141 10.8664 15V14C10.8664 13.5859 10.5304 13.2502 10.1164 13.25ZM10.1164 8.75C9.70215 8.75 9.36637 9.08579 9.36637 9.5V10.5C9.36637 10.9142 9.70215 11.25 10.1164 11.25C10.5304 11.2498 10.8664 10.9141 10.8664 10.5V9.5C10.8664 9.08592 10.5304 8.75022 10.1164 8.75ZM16.1164 0C18.3253 0.000263864 20.1164 1.79102 20.1164 4C20.1164 6.20896 18.1162 9.99938 16.1164 10C14.1164 10 12.1164 6.20914 12.1164 4C12.1164 1.79086 13.9072 0 16.1164 0ZM16.1164 2.5C15.2879 2.5 14.6164 3.17157 14.6164 4C14.6164 4.82843 15.2879 5.5 16.1164 5.5C16.9446 5.49974 17.6164 4.82826 17.6164 4C17.6164 3.17174 16.9446 2.50026 16.1164 2.5Z" fill="var(--fill-0, white)"/>
</g>
</svg>
